<svg width="217" height="165" viewBox="0 0 217 165" fill="none" xmlns="http://www.w3.org/2000/svg">
<path d="M205.926 161.292C209.155 159.667 211.978 157.133 214.119 153.208C222.262 138.272 210.533 117.375 197.879 109.855C191.201 105.884 183.111 105.824 176.207 102.443C166.563 97.7201 163.079 87.5081 163.311 77.2748C163.609 64.2068 169.425 51.9814 169.679 38.8814C170.075 18.5548 148.149 -3.85988 128.599 0.564117C114.025 3.86278 109.905 20.3681 96.4368 25.2934C79.0461 31.6521 60.8901 27.0614 43.6488 23.0255C37.3741 21.5548 30.4474 21.1321 24.8634 24.5148C11.2434 32.7641 7.69409 53.9721 10.8568 68.9094C12.5328 76.8188 15.6621 84.3601 16.9888 92.3921C18.6328 102.341 17.8154 112.489 11.8488 120.893C8.20076 126.033 3.93409 130.377 1.99675 136.709C-0.695247 145.504 -0.823235 155.419 2.58477 164.027C19.6834 163.86 36.7821 163.676 53.8794 163.487C86.0448 163.129 118.102 164.144 150.265 163.66C160.105 163.513 169.941 164.023 179.781 163.951C188.339 163.888 198.275 165.143 205.926 161.292Z" fill="#FE662E"/>
<path d="M208.752 89.9279C207.967 89.9279 207.295 90.3893 206.975 91.052H203.408C203.303 89.5386 202.932 88.0986 202.34 86.7773C202.334 86.7586 202.327 86.7399 202.319 86.7213C202.319 86.7213 202.319 86.7266 202.32 86.7306C201.823 85.6306 201.174 84.6159 200.399 83.7106L203.615 80.4946C204.002 80.668 204.43 80.7666 204.88 80.7666C206.587 80.7666 207.972 79.3826 207.972 77.6746C207.972 75.9666 206.587 74.5826 204.88 74.5826C203.171 74.5826 201.787 75.9666 201.787 77.6746C201.787 78.2933 201.971 78.868 202.284 79.3506L199.174 82.4613C197.14 80.6573 194.522 79.4973 191.638 79.2999V75.8066C192.526 75.4573 193.158 74.5959 193.158 73.5826C193.158 72.2613 192.086 71.188 190.763 71.188C189.442 71.188 188.368 72.2613 188.368 73.5826C188.368 74.5959 189 75.4573 189.89 75.8066V79.2999C187.271 79.4786 184.871 80.4519 182.93 81.9813L180.448 79.5013C180.826 78.9893 181.051 78.3586 181.051 77.6746C181.051 75.9666 179.667 74.5826 177.958 74.5826C176.251 74.5826 174.867 75.9666 174.867 77.6746C174.867 79.3826 176.251 80.7666 177.958 80.7666C178.339 80.7666 178.704 80.6933 179.042 80.5666L181.63 83.1559C179.628 85.2346 178.332 87.9933 178.118 91.052H175.051C174.731 90.3893 174.058 89.9279 173.274 89.9279C172.18 89.9279 171.295 90.8133 171.295 91.9053C171.295 92.9986 172.18 93.8839 173.274 93.8839C174.042 93.8839 174.7 93.4413 175.028 92.8013H178.114C178.306 95.6933 179.471 98.3159 181.28 100.355L178.355 103.281C177.906 103.025 177.388 102.879 176.835 102.879C175.126 102.879 173.742 104.263 173.742 105.969C173.742 107.679 175.126 109.063 176.835 109.063C178.542 109.063 179.926 107.679 179.926 105.969C179.926 105.453 179.796 104.965 179.572 104.537L182.528 101.58C183.184 102.141 183.898 102.636 184.66 103.056H184.631C184.631 103.056 184.783 103.136 185.012 103.252C185.014 103.252 185.015 103.252 185.016 103.253C185.018 103.253 185.019 103.255 185.02 103.256C185.2 103.345 185.424 103.453 185.668 103.563C185.671 103.564 185.676 103.567 185.682 103.567C185.996 103.708 186.336 103.847 186.64 103.941C186.64 103.941 186.762 103.984 186.962 104.045C187.038 104.068 187.114 104.091 187.19 104.113C187.3 104.145 187.424 104.179 187.558 104.215C187.676 104.244 187.795 104.276 187.916 104.303C188.066 104.339 188.223 104.372 188.384 104.403C188.384 104.403 188.408 104.408 188.447 104.415C188.499 104.424 188.551 104.432 188.602 104.441C188.66 104.451 188.728 104.46 188.807 104.472C189.164 104.527 189.523 104.569 189.89 104.595V107.565C189 107.915 188.368 108.776 188.368 109.789C188.368 111.112 189.442 112.183 190.763 112.183C192.086 112.183 193.158 111.112 193.158 109.789C193.158 108.776 192.526 107.915 191.638 107.565V104.593H191.64C191.731 104.588 191.823 104.581 191.914 104.572C191.994 104.567 192.072 104.559 192.152 104.551C192.155 104.551 192.158 104.549 192.162 104.549C192.162 104.549 195.635 104.361 198.696 101.847C198.696 101.847 199.051 101.579 199.559 101.085L202.139 103.664C201.503 104.231 201.102 105.053 201.102 105.969C201.102 107.679 202.486 109.063 204.192 109.063C205.9 109.063 207.284 107.679 207.284 105.969C207.284 104.263 205.9 102.879 204.192 102.879C204.075 102.879 203.96 102.887 203.846 102.9L200.739 99.7906C201.768 98.5159 202.866 96.7053 203.194 94.5093C203.194 94.5093 203.371 93.8693 203.428 92.8013H206.999C207.326 93.4413 207.984 93.8839 208.752 93.8839C209.844 93.8839 210.73 92.9986 210.73 91.9053C210.73 90.8133 209.844 89.9279 208.752 89.9279Z" fill="#2F0578"/>
<path d="M167.471 108.573C167.045 108.573 166.678 108.823 166.505 109.185H164.566C164.509 108.362 164.307 107.579 163.986 106.861C163.982 106.85 163.978 106.841 163.974 106.83V106.835C163.705 106.238 163.351 105.686 162.931 105.194L164.678 103.445C164.889 103.541 165.121 103.594 165.366 103.594C166.294 103.594 167.047 102.841 167.047 101.913C167.047 100.986 166.294 100.233 165.366 100.233C164.438 100.233 163.685 100.986 163.685 101.913C163.685 102.25 163.785 102.562 163.955 102.823L162.265 104.515C161.159 103.534 159.735 102.903 158.167 102.797V100.898C158.651 100.709 158.995 100.239 158.995 99.6899C158.995 98.9699 158.411 98.3873 157.693 98.3873C156.974 98.3873 156.391 98.9699 156.391 99.6899C156.391 100.239 156.734 100.709 157.218 100.898V102.797C155.794 102.894 154.491 103.423 153.435 104.254L152.087 102.906C152.291 102.627 152.414 102.285 152.414 101.913C152.414 100.986 151.662 100.233 150.733 100.233C149.805 100.233 149.053 100.986 149.053 101.913C149.053 102.841 149.805 103.594 150.733 103.594C150.941 103.594 151.138 103.554 151.322 103.486L152.729 104.893C151.641 106.022 150.937 107.522 150.821 109.185H149.153C148.979 108.823 148.613 108.573 148.186 108.573C147.593 108.573 147.111 109.054 147.111 109.649C147.111 110.242 147.593 110.723 148.186 110.723C148.605 110.723 148.962 110.483 149.141 110.135H150.818C150.922 111.707 151.555 113.133 152.539 114.241L150.949 115.83C150.705 115.693 150.423 115.611 150.122 115.611C149.194 115.611 148.442 116.365 148.442 117.293C148.442 118.221 149.194 118.974 150.122 118.974C151.05 118.974 151.802 118.221 151.802 117.293C151.802 117.011 151.733 116.747 151.61 116.514L153.218 114.907C153.574 115.211 153.961 115.482 154.375 115.71C154.37 115.709 154.366 115.709 154.361 115.709C154.361 115.709 154.443 115.753 154.567 115.815L154.569 115.817C154.569 115.817 154.57 115.818 154.571 115.818C154.669 115.866 154.79 115.925 154.923 115.985C154.926 115.986 154.929 115.986 154.931 115.987C155.102 116.063 155.287 116.139 155.451 116.19C155.451 116.19 155.518 116.213 155.627 116.247C155.667 116.261 155.71 116.271 155.751 116.283C155.81 116.301 155.878 116.319 155.95 116.338C156.015 116.355 156.079 116.373 156.146 116.386C156.227 116.406 156.311 116.425 156.399 116.441C156.399 116.441 156.413 116.443 156.434 116.447C156.462 116.453 156.49 116.457 156.518 116.462C156.55 116.467 156.587 116.473 156.63 116.479C156.823 116.509 157.019 116.533 157.218 116.545V118.159C156.734 118.35 156.391 118.818 156.391 119.369C156.391 120.087 156.974 120.67 157.693 120.67C158.411 120.67 158.995 120.087 158.995 119.369C158.995 118.818 158.651 118.35 158.167 118.159V116.545H158.169C158.219 116.542 158.269 116.538 158.319 116.534C158.362 116.53 158.405 116.526 158.447 116.521H158.453C158.453 116.521 160.341 116.419 162.005 115.051C162.005 115.051 162.198 114.906 162.474 114.638L163.877 116.039C163.531 116.347 163.311 116.794 163.311 117.293C163.311 118.221 164.063 118.974 164.993 118.974C165.921 118.974 166.673 118.221 166.673 117.293C166.673 116.365 165.921 115.611 164.993 115.611C164.929 115.611 164.866 115.617 164.805 115.623L163.115 113.934C163.674 113.242 164.271 112.257 164.449 111.063C164.449 111.063 164.546 110.715 164.577 110.135H166.517C166.695 110.483 167.054 110.723 167.471 110.723C168.065 110.723 168.546 110.242 168.546 109.649C168.546 109.054 168.065 108.573 167.471 108.573Z" fill="#2F0578"/>
<path d="M176.896 53.4617C176.369 53.4617 175.921 53.7697 175.706 54.2124H173.321C173.25 53.2017 173.002 52.2377 172.606 51.3537C172.601 51.3417 172.597 51.3284 172.592 51.3177C172.592 51.3177 172.592 51.3204 172.593 51.323C172.26 50.5884 171.826 49.9084 171.309 49.303L173.46 47.1524C173.718 47.267 174.004 47.3337 174.306 47.3337C175.448 47.3337 176.373 46.4084 176.373 45.267C176.373 44.1244 175.448 43.199 174.306 43.199C173.162 43.199 172.237 44.1244 172.237 45.267C172.237 45.6804 172.361 46.0644 172.57 46.3884L170.489 48.4684C169.129 47.2617 167.377 46.4857 165.449 46.3537V44.0177C166.042 43.783 166.466 43.2084 166.466 42.531C166.466 41.6457 165.749 40.9297 164.865 40.9297C163.978 40.9297 163.262 41.6457 163.262 42.531C163.262 43.2084 163.685 43.783 164.278 44.0177V46.3537C162.528 46.4737 160.924 47.1244 159.624 48.147L157.966 46.4884C158.217 46.1457 158.368 45.723 158.368 45.267C158.368 44.1244 157.442 43.199 156.3 43.199C155.157 43.199 154.232 44.1244 154.232 45.267C154.232 46.4084 155.157 47.3337 156.3 47.3337C156.556 47.3337 156.798 47.2857 157.025 47.2017L158.757 48.9337C157.418 50.323 156.549 52.167 156.408 54.2124H154.356C154.142 53.7697 153.692 53.4617 153.166 53.4617C152.436 53.4617 151.844 54.0537 151.844 54.7844C151.844 55.515 152.436 56.107 153.166 56.107C153.681 56.107 154.121 55.811 154.34 55.383H156.404C156.533 57.3177 157.312 59.071 158.522 60.435L156.566 62.3924C156.265 62.2217 155.918 62.123 155.548 62.123C154.406 62.123 153.48 63.0484 153.48 64.191C153.48 65.3324 154.406 66.259 155.548 66.259C156.69 66.259 157.616 65.3324 157.616 64.191C157.616 63.8444 157.53 63.519 157.378 63.2324L159.357 61.2564C159.796 61.631 160.272 61.9617 160.782 62.2417H160.762C160.762 62.2417 160.865 62.2964 161.018 62.3737H161.021L161.024 62.3764C161.144 62.4337 161.293 62.507 161.456 62.5804C161.46 62.5817 161.462 62.583 161.465 62.5844C161.676 62.6777 161.904 62.771 162.106 62.8337C162.106 62.8337 162.188 62.8617 162.321 62.903C162.372 62.919 162.424 62.9337 162.474 62.9484C162.548 62.971 162.632 62.9924 162.72 63.0164C162.8 63.0377 162.878 63.0564 162.96 63.0764C163.061 63.099 163.164 63.1217 163.273 63.143C163.273 63.143 163.289 63.147 163.314 63.151C163.349 63.1564 163.384 63.1617 163.418 63.167C163.457 63.1737 163.504 63.1817 163.556 63.1884C163.794 63.2257 164.034 63.255 164.278 63.2697V65.2577C163.685 65.491 163.262 66.067 163.262 66.7444C163.262 67.6297 163.978 68.3457 164.865 68.3457C165.749 68.3457 166.466 67.6297 166.466 66.7444C166.466 66.067 166.042 65.491 165.449 65.2577V63.2697H165.45C165.512 63.267 165.572 63.2617 165.634 63.2564C165.686 63.2524 165.74 63.247 165.793 63.2417C165.794 63.2404 165.797 63.2404 165.798 63.2404C165.798 63.2404 168.122 63.115 170.169 61.4337C170.169 61.4337 170.406 61.2537 170.748 60.9244L172.472 62.6484C172.046 63.027 171.777 63.5777 171.777 64.191C171.777 65.3324 172.704 66.259 173.846 66.259C174.988 66.259 175.914 65.3324 175.914 64.191C175.914 63.0484 174.988 62.123 173.846 62.123C173.768 62.123 173.69 62.1284 173.614 62.1364L171.536 60.0577C172.224 59.2057 172.958 57.9937 173.177 56.5257C173.177 56.5257 173.296 56.0977 173.334 55.383H175.722C175.941 55.811 176.381 56.107 176.896 56.107C177.626 56.107 178.218 55.515 178.218 54.7844C178.218 54.0537 177.626 53.4617 176.896 53.4617Z" fill="#2F0578"/>
<path d="M151.769 141.366C151.18 141.366 150.675 141.713 150.433 142.212H147.752C147.673 141.073 147.395 139.992 146.951 138.998C146.944 138.984 146.94 138.97 146.933 138.956C146.933 138.956 146.935 138.958 146.935 138.962C146.561 138.136 146.073 137.373 145.491 136.693L147.908 134.276C148.199 134.405 148.52 134.48 148.859 134.48C150.143 134.48 151.184 133.44 151.184 132.156C151.184 130.872 150.143 129.832 148.859 129.832C147.575 129.832 146.535 130.872 146.535 132.156C146.535 132.621 146.673 133.053 146.908 133.416L144.571 135.754C143.04 134.397 141.073 133.526 138.905 133.378V130.752C139.573 130.489 140.048 129.841 140.048 129.08C140.048 128.086 139.241 127.281 138.247 127.281C137.253 127.281 136.448 128.086 136.448 129.08C136.448 129.841 136.921 130.489 137.591 130.752V133.378C135.623 133.512 133.819 134.244 132.359 135.393L130.495 133.529C130.777 133.144 130.947 132.67 130.947 132.156C130.947 130.872 129.907 129.832 128.623 129.832C127.339 129.832 126.297 130.872 126.297 132.156C126.297 133.44 127.339 134.48 128.623 134.48C128.909 134.48 129.184 134.425 129.437 134.33L131.383 136.277C129.879 137.838 128.904 139.912 128.743 142.212H126.437C126.196 141.713 125.691 141.366 125.101 141.366C124.28 141.366 123.615 142.032 123.615 142.853C123.615 143.673 124.28 144.34 125.101 144.34C125.679 144.34 126.173 144.006 126.42 143.526H128.74C128.884 145.7 129.76 147.672 131.12 149.205L128.921 151.404C128.583 151.212 128.193 151.101 127.777 151.101C126.493 151.101 125.453 152.141 125.453 153.425C125.453 154.709 126.493 155.749 127.777 155.749C129.061 155.749 130.101 154.709 130.101 153.425C130.101 153.036 130.005 152.67 129.836 152.348L132.059 150.125C132.552 150.548 133.087 150.92 133.66 151.234C133.652 151.234 133.645 151.234 133.639 151.233C133.639 151.233 133.752 151.296 133.925 151.382C133.925 151.382 133.927 151.382 133.928 151.384L133.931 151.385C134.067 151.45 134.235 151.533 134.417 151.616C134.42 151.616 134.424 151.617 134.428 151.618C134.665 151.725 134.92 151.83 135.148 151.9C135.148 151.9 135.24 151.932 135.391 151.978C135.448 151.997 135.505 152.012 135.563 152.029C135.644 152.053 135.739 152.078 135.837 152.105C135.927 152.128 136.017 152.152 136.108 152.172C136.221 152.198 136.337 152.225 136.46 152.248C136.46 152.248 136.477 152.25 136.507 152.256C136.545 152.264 136.584 152.269 136.624 152.276C136.667 152.284 136.719 152.29 136.777 152.298C137.045 152.34 137.316 152.373 137.591 152.392V154.622C136.921 154.886 136.448 155.534 136.448 156.296C136.448 157.289 137.253 158.096 138.247 158.096C139.241 158.096 140.048 157.289 140.048 156.296C140.048 155.534 139.573 154.886 138.905 154.622V152.392L138.908 152.39C138.975 152.386 139.044 152.381 139.113 152.376C139.172 152.369 139.232 152.364 139.292 152.357H139.297C139.297 152.357 141.909 152.217 144.211 150.326C144.211 150.326 144.477 150.124 144.86 149.753L146.797 151.692C146.321 152.117 146.019 152.734 146.019 153.425C146.019 154.709 147.059 155.749 148.343 155.749C149.627 155.749 150.667 154.709 150.667 153.425C150.667 152.141 149.627 151.101 148.343 151.101C148.255 151.101 148.168 151.108 148.081 151.116L145.745 148.781C146.519 147.822 147.345 146.46 147.591 144.809C147.591 144.809 147.725 144.329 147.768 143.526H150.452C150.697 144.006 151.192 144.34 151.769 144.34C152.591 144.34 153.256 143.673 153.256 142.853C153.256 142.032 152.591 141.366 151.769 141.366Z" fill="#2F0578"/>
<path d="M199.751 128.764C199.324 128.764 198.959 129.014 198.784 129.375H196.846C196.788 128.552 196.587 127.77 196.267 127.052C196.262 127.042 196.259 127.031 196.255 127.02V127.026C195.984 126.428 195.632 125.878 195.211 125.386L196.959 123.636C197.168 123.731 197.4 123.786 197.647 123.786C198.574 123.786 199.327 123.032 199.327 122.104C199.327 121.176 198.574 120.423 197.647 120.423C196.719 120.423 195.966 121.176 195.966 122.104C195.966 122.44 196.066 122.752 196.235 123.015L194.546 124.706C193.44 123.726 192.016 123.095 190.448 122.988V121.088C190.932 120.899 191.275 120.431 191.275 119.88C191.275 119.162 190.692 118.579 189.974 118.579C189.255 118.579 188.671 119.162 188.671 119.88C188.671 120.431 189.015 120.899 189.499 121.088V122.988C188.075 123.084 186.771 123.614 185.715 124.446L184.367 123.096C184.571 122.819 184.694 122.475 184.694 122.104C184.694 121.176 183.942 120.423 183.012 120.423C182.086 120.423 181.334 121.176 181.334 122.104C181.334 123.032 182.086 123.786 183.012 123.786C183.222 123.786 183.419 123.744 183.603 123.678L185.008 125.083C183.922 126.214 183.216 127.712 183.1 129.375H181.434C181.259 129.014 180.894 128.764 180.467 128.764C179.874 128.764 179.391 129.246 179.391 129.84C179.391 130.434 179.874 130.914 180.467 130.914C180.886 130.914 181.243 130.675 181.42 130.326H183.098C183.203 131.899 183.835 133.323 184.82 134.432L183.228 136.022C182.986 135.884 182.703 135.803 182.402 135.803C181.474 135.803 180.722 136.556 180.722 137.484C180.722 138.412 181.474 139.164 182.402 139.164C183.331 139.164 184.083 138.412 184.083 137.484C184.083 137.203 184.012 136.939 183.89 136.706L185.498 135.098C185.854 135.403 186.242 135.672 186.656 135.9H186.64C186.64 135.9 186.723 135.944 186.847 136.007L186.85 136.008H186.852C186.948 136.058 187.071 136.116 187.204 136.175C187.206 136.176 187.21 136.178 187.211 136.179C187.383 136.254 187.567 136.331 187.732 136.382C187.732 136.382 187.798 136.403 187.907 136.438C187.948 136.451 187.99 136.462 188.031 136.475C188.091 136.492 188.159 136.511 188.23 136.53C188.295 136.546 188.36 136.563 188.426 136.578C188.507 136.596 188.592 136.616 188.68 136.632C188.68 136.632 188.694 136.635 188.715 136.638C188.742 136.643 188.771 136.648 188.798 136.652C188.831 136.658 188.867 136.663 188.91 136.67C189.104 136.699 189.299 136.723 189.499 136.736V138.35C189.015 138.54 188.671 139.01 188.671 139.56C188.671 140.279 189.255 140.86 189.974 140.86C190.692 140.86 191.275 140.279 191.275 139.56C191.275 139.01 190.932 138.54 190.448 138.35V136.736C190.5 136.734 190.55 136.73 190.599 136.724C190.642 136.72 190.684 136.718 190.727 136.712C190.73 136.712 190.731 136.712 190.732 136.711C190.732 136.711 192.622 136.61 194.284 135.243C194.284 135.243 194.478 135.098 194.755 134.83L196.156 136.231C195.811 136.538 195.592 136.986 195.592 137.484C195.592 138.412 196.344 139.164 197.274 139.164C198.202 139.164 198.952 138.412 198.952 137.484C198.952 136.556 198.202 135.803 197.274 135.803C197.21 135.803 197.147 135.807 197.084 135.815L195.395 134.126C195.954 133.432 196.551 132.448 196.73 131.254C196.73 131.254 196.827 130.906 196.858 130.326H198.798C198.976 130.675 199.334 130.914 199.751 130.914C200.344 130.914 200.827 130.434 200.827 129.84C200.827 129.246 200.344 128.764 199.751 128.764Z" fill="#2F0578"/>
<path d="M120.504 76.124H160.105" stroke="#9937FF" stroke-width="1.33333" stroke-miterlimit="10"/>
<path d="M117.178 81.7216L135.406 111.974" stroke="#9937FF" stroke-width="1.33333" stroke-miterlimit="10"/>
<path d="M119.015 78.6307L149.337 94.7334" stroke="#9937FF" stroke-width="1.33333" stroke-miterlimit="10"/>
<path d="M110.485 48.2714L108.72 44.0528L106.953 48.2714L102.733 50.0381L106.953 51.8048L108.72 56.0234L110.485 51.8048L114.705 50.0381L110.485 48.2714Z" fill="white"/>
<path d="M42.5936 67.2086L40.0416 61.1139L37.4896 67.2086L31.3949 69.7606L37.4896 72.3126L40.0416 78.4072L42.5936 72.3126L48.6882 69.7606L42.5936 67.2086Z" fill="white"/>
<path d="M87.0103 109.757L85.2343 105.515L83.4583 109.757L79.2169 111.531L83.4583 113.307L85.2343 117.549L87.0103 113.307L91.2516 111.531L87.0103 109.757Z" fill="white"/>
<path d="M94.7823 102.387L93.6383 99.6552L92.4943 102.387L89.7623 103.53L92.4943 104.675L93.6383 107.407L94.7823 104.675L97.5143 103.53L94.7823 102.387Z" fill="white"/>
<path d="M111.946 78.2207L106.68 75.418L88.2783 72.7727L60.849 57.114L65.3077 53.3674L81.993 52.6594L115.581 72.1034L111.946 78.2207Z" fill="white"/>
<path d="M115.211 72.7261L119.381 75.2035L116.321 80.3555L112.151 77.8768" fill="#8F49C1"/>
<path d="M69.9685 62.3193L69.0205 63.9153L87.1432 74.6807L88.2765 72.7713" fill="#8F49C1"/>
<path d="M87.143 74.6817L88.631 75.5657L83.8123 83.6777L63.2043 71.4351L68.023 63.3231L69.0203 63.9164" fill="#8F49C1"/>
<path d="M105.63 75.2678C105.63 75.2678 98.5206 83.3891 98.6193 97.0771C98.6193 97.0771 92.7899 89.2238 96.1619 73.9065" fill="#8F49C1"/>
<path d="M63.3786 71.1407L38.2919 93.1447C38.2919 93.1447 33.0853 97.886 17.5959 118.819C17.5959 118.819 9.08395 130.093 13.1333 141.526L48.9519 162.805C48.9519 162.805 57.8759 162.531 63.1946 152.237L78.0159 124.311C78.0159 124.311 79.2506 121.858 78.4079 118.659L73.3546 98.486C73.3546 98.486 73.4613 96.9114 76.4466 96.13C76.4466 96.13 79.3746 94.982 78.0213 91.3007C78.0213 91.3007 77.7386 88.5007 80.7159 88.366C80.7159 88.366 84.0253 87.786 83.8119 83.6767" fill="white"/>
<path d="M49.7901 86.9872L40.2861 95.6379C40.2861 95.6379 35.5114 100.139 21.1341 119.827C21.1341 119.827 13.2381 130.434 16.5647 140.867L48.0314 159.561C48.0314 159.561 56.0141 159.079 61.0301 149.458L74.9887 123.345C74.9887 123.345 76.1554 121.053 75.4847 118.125L71.4847 99.6632L49.7901 86.9872Z" fill="#DDB7FF"/>
</svg>
