<svg width="230" height="164" viewBox="0 0 230 164" fill="none" xmlns="http://www.w3.org/2000/svg">
<path d="M53.2673 163.655L188.677 164C201.231 158.084 214.484 147.174 221.629 134.771C231.972 116.825 233.218 93.0602 222.624 74.8204C216.566 64.385 207.081 58.9798 198.021 51.565C180.182 36.966 168.915 14.8975 146.967 6.01035C127.53 -1.85927 104.594 -1.71524 84.8662 4.77542C66.3912 10.854 55.0528 22.5937 45.9066 39.2838C39.1138 51.6797 26.4919 59.1319 17.1632 69.3273C4.73198 82.9114 -0.362659 101.943 1.30871 120.16C2.38402 131.868 7.27192 160.083 21.4483 163.543L53.2673 163.625" fill="#7474B4"/>
<path d="M12.4935 108.169C12.8895 108.152 13.2961 108.145 13.7108 108.146C25.3255 108.196 44.1255 115.121 44.1255 115.121C51.0028 113.173 62.2108 116.358 62.0895 116.126C62.0895 116.126 62.1961 109.226 66.3388 84.6303C66.5828 83.1756 65.7481 81.8983 65.2895 80.5156C59.0655 80.3543 54.3295 77.5329 54.0828 77.5436C53.8735 77.5529 50.1935 78.7729 49.0868 78.6289C46.3415 78.2703 44.8988 76.7676 44.3108 75.1663C43.9521 74.1903 44.5068 73.1223 45.3508 72.5143C46.0388 72.0183 47.3761 70.9076 47.3761 70.9076C44.6695 69.9516 42.4175 66.9196 42.2041 66.3609C41.9081 65.5849 42.0468 64.7089 42.2868 63.9143C42.4468 63.3796 42.6508 62.8583 42.9068 62.3623C43.3348 61.5263 48.1121 53.2449 48.3668 52.9583C49.2841 51.9263 50.1441 52.7516 51.0575 52.7716C51.7881 52.7889 52.4268 52.2956 53.1388 52.1316C54.0215 51.9263 54.9255 52.2409 55.7721 52.5769C58.0508 53.5236 60.3295 54.4689 62.6081 55.4143C66.9255 57.3489 72.0001 58.5836 75.5295 61.9196C77.8841 64.1449 79.4215 67.1289 80.3428 70.2356C81.1521 72.9716 81.4268 76.4863 81.8868 79.2663C84.0348 92.2476 88.7308 104.636 91.0241 117.605C92.2921 124.76 94.8681 141.661 85.2615 144.45C83.2308 145.04 81.0668 144.942 78.9601 144.749C68.5308 143.808 56.3001 144.068 46.0761 146.624C42.8628 147.053 38.3655 148.462 35.2601 147.856L8.83081 149.461L12.4935 108.169Z" fill="#FFCA9A"/>
<path d="M62.1121 89.8184C57.9707 114.414 62.0894 116.125 62.0894 116.125C62.2107 116.357 51.0027 113.173 44.1254 115.121C44.1254 115.121 25.3254 108.194 13.7107 108.146C13.2961 108.145 1.39606 108.661 1.00006 108.677C0.92779 114.873 1.20893 118.33 2.00006 124.5C3.3618 135.093 4.77975 140.787 8.50006 150.5L35.2601 147.854C38.3654 148.461 42.8627 147.053 46.0774 146.624C56.3014 144.068 68.5307 143.808 78.9601 144.748C81.0667 144.942 83.2307 145.04 85.2614 144.45C94.8681 141.661 92.2921 124.76 91.0254 117.605C88.7307 104.634 87.5801 98.5078 85.4307 85.5264L62.1121 89.8184Z" fill="#404099"/>
<path d="M90.7701 118.022C88.5791 105.074 87.481 98.9584 85.4312 86L80.4104 86.9676C81.8469 95.8213 82.9068 101.835 84.6894 112.368C85.8969 119.51 88.3564 136.381 79.1889 139.166C77.2497 139.755 75.1859 139.658 73.1756 139.463C63.2229 138.526 51.5513 138.784 41.7959 141.335C38.7282 141.764 34.4377 143.171 31.473 142.564L8 143.885L8.5853 150L37.5538 148.218C40.5172 148.825 44.8089 147.418 47.8754 146.989C57.6321 144.438 69.3037 144.178 79.255 145.117C81.2654 145.311 83.3305 145.408 85.2696 144.82C94.4372 142.035 91.9776 125.164 90.7701 118.022Z" fill="#404099"/>
<path d="M62.1121 89.8184C62.1121 89.8184 62.3521 87.513 66.0814 86.1664L65.5841 89.1797L62.1121 89.8184Z" fill="#081116"/>
<path d="M82.7043 83.6388C82.7043 83.6388 84.767 83.6682 85.431 85.5268L83.2003 85.9375L82.7043 83.6388Z" fill="#081116"/>
<path d="M46.8816 70.7059C46.9376 70.7299 47.0949 70.6753 47.1576 70.6646C48.5336 70.4419 49.9043 70.0126 51.1043 69.2913C51.5043 69.0526 51.8843 68.7779 52.2349 68.4686C52.5896 68.1539 52.8816 67.7699 53.1883 67.4086C52.7376 67.9393 52.4096 68.5539 51.9243 69.0619C51.0123 70.0166 49.9136 70.5579 48.6669 70.9446C48.0816 71.1246 47.4936 71.2686 46.8816 71.3086C47.0456 71.1753 47.2109 71.0406 47.3763 70.9059C47.2109 70.8406 47.0469 70.7739 46.8816 70.7059Z" fill="#FFAA8D"/>
<path d="M219.251 108.169C218.855 108.152 218.449 108.145 218.034 108.146C206.418 108.196 187.618 115.121 187.618 115.121C180.741 113.173 169.534 116.358 169.654 116.126C169.654 116.126 169.549 109.226 165.406 84.6302C165.161 83.1755 165.995 81.8982 166.454 80.5155C172.679 80.3542 177.415 77.5329 177.661 77.5435C177.87 77.5529 181.551 78.7729 182.658 78.6289C185.403 78.2702 186.845 76.7675 187.434 75.1662C187.791 74.1902 187.237 73.1222 186.393 72.5142C185.705 72.0182 184.369 70.9075 184.369 70.9075C187.075 69.9515 189.327 66.9195 189.541 66.3609C189.837 65.5849 189.698 64.7089 189.458 63.9142C189.297 63.3795 189.093 62.8582 188.838 62.3622C188.41 61.5262 183.631 53.2449 183.377 52.9582C182.459 51.9262 181.599 52.7515 180.687 52.7715C179.957 52.7889 179.318 52.2955 178.606 52.1315C177.723 51.9262 176.819 52.2409 175.973 52.5769C173.693 53.5235 171.415 54.4688 169.135 55.4142C164.819 57.3489 159.745 58.5835 156.215 61.9195C153.861 64.1449 152.323 67.1289 151.402 70.2355C150.593 72.9715 150.317 76.4862 149.857 79.2662C147.71 92.2475 143.013 104.636 140.719 117.605C139.453 124.76 136.877 141.661 146.482 144.45C148.514 145.04 150.677 144.942 152.783 144.749C163.214 143.808 175.445 144.068 185.667 146.624C188.882 147.053 193.378 148.462 196.485 147.856L210.5 149L219.251 108.169Z" fill="#FFD4AB"/>
<path d="M169.632 89.8184C173.773 114.414 169.654 116.125 169.654 116.125C169.534 116.357 180.741 113.173 187.618 115.121C187.618 115.121 206.418 108.194 218.034 108.146C218.449 108.145 229.604 108.13 230 108.146C227.5 125.5 223.173 135.506 210.5 149L196.485 147.854C193.378 148.461 182.216 148.284 179 147.854C168.777 145.298 162.5 146 152.784 144.748C150.677 144.942 148.514 145.04 146.482 144.45C136.877 141.661 139.453 124.76 140.718 117.605C143.013 104.634 144.165 98.5078 146.314 85.5264L169.632 89.8184Z" fill="#FE4400"/>
<path d="M140.478 117.605C142.344 104.634 143.28 98.5077 145.027 85.5263L149.305 86.4957C148.08 95.365 147.177 101.389 145.659 111.941C144.629 119.096 142.533 135.997 150.346 138.786C151.997 139.377 153.756 139.28 155.469 139.084C163.948 138.145 173.893 138.404 182.206 140.96C184.818 141.389 188.475 142.798 191.001 142.19L211 143.514L210.502 149.64L185.82 147.854C183.294 148.462 179.639 147.053 177.025 146.624C168.713 144.068 158.768 143.808 150.288 144.748C148.575 144.942 146.817 145.04 145.163 144.45C137.353 141.661 139.449 124.76 140.478 117.605Z" fill="#FE4400"/>
<path d="M169.632 89.8184C169.632 89.8184 169.393 87.513 165.662 86.1664L166.16 89.1797L169.632 89.8184Z" fill="#F9BE00"/>
<path d="M149.039 83.6388C149.039 83.6388 146.976 83.6682 146.314 85.5268L148.543 85.9375L149.039 83.6388Z" fill="#F9BE00"/>
<path d="M184.863 70.7059C184.806 70.7299 184.649 70.6753 184.587 70.6646C183.211 70.4419 181.839 70.0126 180.639 69.2913C180.239 69.0526 179.859 68.7779 179.51 68.4686C179.155 68.1539 178.863 67.7699 178.555 67.4086C179.007 67.9393 179.335 68.5539 179.821 69.0619C180.733 70.0166 181.83 70.5579 183.078 70.9446C183.663 71.1246 184.25 71.2686 184.863 71.3086C184.698 71.1753 184.534 71.0406 184.369 70.9059C184.533 70.8406 184.698 70.7739 184.863 70.7059Z" fill="#FFAA8D"/>
<path d="M67.5208 51.291H159.785" stroke="#2F0578" stroke-width="2.66667" stroke-miterlimit="10"/>
<path d="M106.17 42.8036V45.3516H95.9594V43.3248L101.171 38.4027C101.724 37.8751 102.098 37.4247 102.291 37.0515C102.484 36.6655 102.58 36.2859 102.58 35.9127C102.58 35.3722 102.393 34.9604 102.02 34.6773C101.66 34.3814 101.126 34.2334 100.418 34.2334C99.8263 34.2334 99.2922 34.3492 98.8161 34.5808C98.34 34.7996 97.9411 35.1342 97.6194 35.5845L95.3417 34.1176C95.8693 33.3326 96.5963 32.7214 97.5229 32.2838C98.4494 31.8334 99.511 31.6083 100.708 31.6083C101.711 31.6083 102.587 31.7755 103.333 32.1101C104.092 32.4318 104.678 32.8951 105.089 33.4999C105.514 34.0918 105.726 34.7932 105.726 35.6039C105.726 36.3373 105.572 37.0258 105.263 37.6692C104.954 38.3126 104.356 39.0461 103.468 39.8697L100.36 42.8036H106.17ZM126.072 45.3516L126.053 37.2446L122.076 43.9232H120.667L116.71 37.4183V45.3516H113.776V31.8399H116.363L121.42 40.2364L126.4 31.8399H128.967L129.006 45.3516H126.072Z" fill="white"/>
</svg>
