<svg width="130" height="24" viewBox="0 0 167 36" fill="none" xmlns="http://www.w3.org/2000/svg">
<g clip-path="url(#clip0)">
<path d="M27.3585 8.38177H16.7619V16.7012H24.8538C25.785 16.7012 26.5878 17.4125 26.5878 18.3404C26.5878 19.2991 25.8172 20.0104 24.8538 20.0104H16.7619V29.567C16.7619 30.5567 15.9913 31.3298 14.9316 31.3298C13.9041 31.3298 13.1334 30.5257 13.1334 29.567V6.89726C13.1334 5.90759 14.0004 5.07255 14.9637 5.07255H27.3585C28.2897 5.07255 29.0925 5.78388 29.0925 6.7117C29.0925 7.67045 28.2897 8.38177 27.3585 8.38177ZM18.2069 0.680874C8.15625 0.680874 0.00012207 8.53641 0.00012207 18.2167C0.00012207 27.8969 8.15625 35.7524 18.2069 35.7524C28.2576 35.7524 36.4137 27.8969 36.4137 18.2167V1.91797V0.680874H18.2069Z" fill="#FC6027"/>
<path d="M53.0788 5.13383C56.5468 5.13383 59.6294 6.30907 61.9093 8.31935C62.6157 8.90696 62.7121 9.98942 62.102 10.7317C61.3955 11.4739 60.3038 11.5049 59.5652 10.9172C57.8312 9.43273 55.6477 8.47398 53.0788 8.47398C47.5237 8.47398 43.2208 12.8657 43.2208 18.2779C43.2208 23.6902 47.5237 28.051 53.0788 28.051C55.6156 28.051 57.8312 27.0922 59.5652 25.6077C60.3038 25.0201 61.4276 25.051 62.102 25.7933C62.7121 26.5355 62.6157 27.618 61.9093 28.2056C59.6294 30.2159 56.5468 31.3911 53.0788 31.3911C45.5649 31.3911 39.6244 25.5149 39.6244 18.247C39.6244 10.9791 45.5649 5.13383 53.0788 5.13383Z" fill="#FC6027"/>
<path d="M77.3225 25.8861L77.2904 24.1851C75.3959 23.5665 73.0518 23.2882 71.9279 23.2882C68.2352 23.2882 67.5287 24.8345 67.5287 26.0098C67.5287 27.3087 68.6526 28.3912 71.0609 28.3912C72.9233 28.3912 75.9096 27.7108 77.3225 25.8861ZM65.7947 17.6285C65.3452 16.9171 65.4415 16.0202 66.1801 15.4326C68.1709 13.7935 70.6114 13.3296 72.5701 13.3296C77.7078 13.3296 80.7905 15.8038 80.7905 20.5975V22.8243V29.5045C80.7905 30.4324 80.0198 31.2055 79.0244 31.2055C78.0611 31.2055 77.3225 30.4324 77.3225 29.5045V28.7932C76.006 30.587 73.2444 31.3911 70.9967 31.3911C66.9186 31.3911 64.2213 29.3808 64.2213 26.0098C64.2213 23.0407 66.3085 20.5666 71.9279 20.5666C73.5977 20.5666 75.2353 20.8758 77.3225 21.4944V20.5975C77.3225 18.0614 75.5243 16.3604 72.3132 16.3604C70.9004 16.3604 69.2948 16.9171 68.0746 17.8759C67.3039 18.3707 66.2443 18.2779 65.7947 17.6285Z" fill="#FC6027"/>
<path d="M85.2219 15.2165C85.2219 14.2887 85.9922 13.5155 86.9556 13.5155C87.9513 13.5155 88.7216 14.2887 88.7216 15.2165V16.2989C89.685 14.3814 92.222 13.4536 93.6988 13.3299C94.4056 13.299 95.0478 13.3299 95.6579 13.4536C97.9378 13.7938 99.5112 15 100.346 16.9175C102.016 13.8247 104.809 13.3608 106.576 13.3608C111.071 13.3608 113.511 16.1752 113.511 21.0308V29.5358C113.511 30.4636 112.741 31.2368 111.745 31.2368C110.782 31.2368 110.011 30.4636 110.011 29.5358V21.2164C110.011 18.3711 108.47 16.6082 105.901 16.6082C102.947 16.5773 101.117 18.7731 101.117 21.6494V29.474C101.117 30.4018 100.346 31.175 99.3506 31.175C98.3873 31.175 97.6167 30.4018 97.6167 29.474V21.1854C97.6167 18.3401 96.0753 16.5463 93.7312 16.5463C91.2263 16.5463 88.7216 18.0309 88.7216 21.6803V29.5049C88.7216 30.4327 87.9513 31.2059 86.9556 31.2059C85.9922 31.2059 85.2219 30.4327 85.2219 29.5049V15.2165Z" fill="#FC6027"/>
<path d="M129.759 25.8861L129.727 24.1851C127.833 23.5665 125.489 23.2882 124.365 23.2882C120.672 23.2882 119.966 24.8345 119.966 26.0098C119.966 27.3087 121.089 28.3912 123.498 28.3912C125.36 28.3912 128.379 27.7108 129.759 25.8861ZM118.232 17.6285C117.782 16.9171 117.878 16.0202 118.617 15.4326C120.608 13.7935 123.048 13.3296 125.007 13.3296C130.145 13.3296 133.228 15.8038 133.228 20.5975V22.8243V29.5045C133.228 30.4324 132.457 31.2055 131.462 31.2055C130.498 31.2055 129.759 30.4324 129.759 29.5045V28.7932C128.443 30.587 125.682 31.3911 123.434 31.3911C119.356 31.3911 116.658 29.3808 116.658 26.0098C116.658 23.0407 118.745 20.5666 124.365 20.5666C126.034 20.5666 127.672 20.8758 129.759 21.4944V20.5975C129.759 18.0614 127.961 16.3604 124.75 16.3604C123.337 16.3604 121.732 16.9171 120.511 17.8759C119.741 18.3707 118.681 18.2779 118.232 17.6285Z" fill="#FC6027"/>
<path d="M146.104 16.546C142.636 16.546 141.159 20.1027 141.159 24.7108V29.5046C141.159 30.4324 140.388 31.2056 139.393 31.2056C138.429 31.2056 137.659 30.4324 137.659 29.5046V15.2161C137.659 14.2883 138.429 13.5151 139.393 13.5151C140.388 13.5151 141.159 14.2883 141.159 15.2161V17.5975C142.09 14.5667 143.824 13.3296 146.168 13.3296C147.485 13.3296 149.636 13.577 149.315 15.4017C149.122 16.4842 148.127 16.7007 146.874 16.5769C146.618 16.546 146.329 16.546 146.104 16.546Z" fill="#FC6027"/>
<path d="M163.058 25.8861L163.026 24.1851C161.132 23.5665 158.788 23.2882 157.664 23.2882C153.971 23.2882 153.265 24.8345 153.265 26.0098C153.265 27.3087 154.389 28.3912 156.797 28.3912C158.659 28.3912 161.646 27.7108 163.058 25.8861ZM151.531 17.6285C151.081 16.9171 151.178 16.0202 151.916 15.4326C153.907 13.7935 156.348 13.3296 158.306 13.3296C163.444 13.3296 166.526 15.8038 166.526 20.5975V22.8243V29.5045C166.526 30.4324 165.756 31.2055 164.76 31.2055C163.797 31.2055 163.058 30.4324 163.058 29.5045V28.7932C161.742 30.587 158.98 31.3911 156.733 31.3911C152.655 31.3911 149.957 29.3808 149.957 26.0098C149.957 23.0407 152.045 20.5666 157.664 20.5666C159.334 20.5666 160.971 20.8758 163.058 21.4944V20.5975C163.058 18.0614 161.26 16.3604 158.049 16.3604C156.636 16.3604 155.031 16.9171 153.811 17.8759C153.04 18.3707 151.98 18.2779 151.531 17.6285Z" fill="#FC6027"/>
<path d="M123.948 8.81468C123.209 9.52601 122.374 9.86621 121.411 9.86621C120.801 9.86621 120.255 9.7425 119.709 9.52601C119.195 9.30952 118.713 8.96932 118.328 8.56726C117.943 8.16521 117.622 7.7013 117.397 7.14461C117.172 6.58792 117.044 6.0003 117.044 5.38175C117.044 4.79413 117.172 4.20651 117.397 3.68075C117.622 3.15498 117.943 2.69107 118.328 2.28902C118.713 1.88696 119.195 1.57769 119.741 1.33027C120.287 1.08285 120.865 0.990071 121.507 0.990071C122.374 0.990071 123.113 1.17563 123.723 1.51583C124.333 1.85604 124.782 2.31995 125.103 2.90756L123.787 3.83538C123.562 3.4024 123.241 3.0622 122.824 2.84571C122.406 2.62922 121.957 2.50551 121.475 2.50551C121.09 2.50551 120.736 2.59829 120.415 2.75293C120.094 2.90756 119.805 3.12406 119.58 3.4024C119.356 3.68075 119.163 3.99002 119.067 4.33022C118.97 4.67042 118.874 5.07248 118.874 5.4436C118.874 5.84566 118.938 6.24771 119.067 6.58792C119.195 6.95904 119.388 7.26832 119.645 7.51573C119.869 7.79408 120.158 7.97964 120.512 8.13428C120.833 8.28892 121.186 8.35077 121.571 8.35077C122.438 8.35077 123.241 7.94872 123.948 7.14461V6.52606H122.117V5.28897H125.425V9.80436H123.948V8.81468Z" fill="#FC6027"/>
<path d="M129.984 5.3811H132.2C132.36 5.3811 132.521 5.35018 132.649 5.25739C132.778 5.19554 132.907 5.07183 133.003 4.94812C133.099 4.82441 133.195 4.66978 133.259 4.48421C133.324 4.29865 133.356 4.11308 133.356 3.92752C133.356 3.71103 133.324 3.52547 133.259 3.37083C133.195 3.18526 133.099 3.06155 132.97 2.90692C132.842 2.78321 132.714 2.69043 132.585 2.59765C132.425 2.53579 132.296 2.50486 132.136 2.50486H129.984V5.3811ZM128.186 9.80371V1.02035H132.232C132.649 1.02035 133.035 1.11313 133.388 1.26777C133.741 1.42241 134.062 1.66982 134.319 1.94817C134.576 2.22652 134.769 2.53579 134.929 2.87599C135.09 3.21619 135.154 3.58732 135.154 3.92752C135.154 4.48421 134.994 5.00998 134.704 5.47389C134.415 5.9378 133.998 6.278 133.516 6.49449L135.604 9.80371H133.581L131.718 6.86562H129.984V9.80371H128.186Z" fill="#FC6027"/>
<path d="M141.865 8.35077C142.283 8.35077 142.636 8.25799 142.925 8.10335C143.214 7.94872 143.439 7.73223 143.631 7.45388C143.824 7.17553 143.92 6.89719 144.017 6.55699C144.113 6.21679 144.113 5.87659 144.113 5.50546V1.021H145.879V5.50546C145.879 6.09308 145.815 6.6807 145.654 7.20646C145.494 7.73223 145.269 8.19614 144.948 8.59819C144.627 9.00025 144.209 9.30952 143.696 9.52601C143.182 9.7425 142.572 9.86621 141.898 9.86621C141.159 9.86621 140.549 9.7425 140.035 9.49508C139.521 9.24766 139.104 8.93839 138.783 8.53634C138.462 8.13428 138.237 7.67037 138.108 7.14461C137.98 6.61884 137.884 6.06215 137.884 5.50546V1.021H139.65V5.50546C139.65 5.87659 139.682 6.24771 139.746 6.58792C139.811 6.92812 139.939 7.23739 140.132 7.48481C140.324 7.73223 140.549 7.94872 140.806 8.13428C141.127 8.28892 141.48 8.35077 141.865 8.35077Z" fill="#FC6027"/>
<path d="M150.728 5.3811H152.783C153.104 5.3811 153.393 5.25739 153.586 5.00998C153.779 4.76256 153.907 4.42236 153.907 3.95845C153.907 3.74196 153.875 3.52547 153.811 3.37083C153.746 3.18526 153.65 3.03063 153.554 2.90692C153.457 2.78321 153.297 2.69043 153.168 2.62857C153.04 2.56672 152.847 2.53579 152.687 2.53579H150.696L150.728 5.3811ZM148.929 9.80371V1.02035H152.783C153.2 1.02035 153.586 1.11313 153.939 1.26777C154.292 1.42241 154.613 1.66982 154.87 1.94817C155.127 2.22652 155.32 2.53579 155.48 2.87599C155.641 3.21619 155.705 3.58732 155.705 3.92752C155.705 4.29865 155.641 4.66978 155.512 5.00998C155.384 5.35018 155.191 5.65945 154.934 5.9378C154.678 6.21614 154.388 6.43263 154.035 6.58727C153.682 6.74191 153.297 6.83469 152.879 6.83469H150.728V9.77278L148.929 9.80371Z" fill="#FC6027"/>
<path d="M159.462 5.41268C159.462 5.7838 159.526 6.15493 159.655 6.52606C159.783 6.86626 159.943 7.20646 160.168 7.45388C160.393 7.73223 160.682 7.94872 161.003 8.10335C161.325 8.25799 161.71 8.35077 162.127 8.35077C162.545 8.35077 162.93 8.25799 163.251 8.10335C163.572 7.94872 163.861 7.7013 164.086 7.42295C164.311 7.14461 164.471 6.83533 164.6 6.46421C164.728 6.12401 164.76 5.75288 164.76 5.38175C164.76 5.01062 164.696 4.63949 164.567 4.26837C164.439 3.92817 164.278 3.58797 164.054 3.34055C163.829 3.09313 163.54 2.84571 163.219 2.69107C162.898 2.53644 162.512 2.44365 162.095 2.44365C161.677 2.44365 161.292 2.53644 160.939 2.69107C160.618 2.84571 160.329 3.09313 160.104 3.37147C159.88 3.64982 159.719 3.95909 159.59 4.29929C159.526 4.70135 159.462 5.04155 159.462 5.41268ZM162.127 9.86621C161.453 9.86621 160.843 9.7425 160.297 9.49508C159.751 9.24766 159.301 8.90746 158.884 8.50541C158.498 8.10335 158.177 7.60852 157.985 7.08275C157.76 6.55699 157.664 6.0003 157.664 5.4436C157.664 4.85599 157.792 4.29929 158.017 3.77353C158.242 3.24776 158.563 2.75293 158.948 2.35087C159.334 1.94882 159.815 1.60862 160.361 1.3612C160.907 1.11378 161.517 0.99007 162.159 0.99007C162.833 0.99007 163.412 1.11378 163.957 1.39213C164.503 1.63954 164.953 1.97975 165.338 2.41273C165.723 2.84571 166.012 3.30962 166.237 3.83538C166.462 4.36115 166.559 4.91784 166.559 5.47453C166.559 6.06215 166.462 6.61884 166.237 7.14461C166.012 7.67037 165.691 8.13428 165.306 8.56726C164.921 8.96932 164.439 9.30952 163.893 9.55694C163.348 9.7425 162.77 9.86621 162.127 9.86621Z" fill="#FC6027"/>
</g>
<defs>
<clipPath id="clip0">
<rect width="166.591" height="35.0716" fill="white" transform="translate(0 0.680176)"/>
</clipPath>
</defs>
</svg>