<svg width="250" height="166" viewBox="0 0 200 166" fill="none" xmlns="http://www.w3.org/2000/svg">
<path d="M326.485 42.2714L324.72 38.0528L322.953 42.2714L318.733 44.0381L322.953 45.8048L324.72 50.0234L326.485 45.8048L330.705 44.0381L326.485 42.2714Z" fill="white"/>
<path d="M258.594 61.2086L256.042 55.1139L253.49 61.2086L247.395 63.7606L253.49 66.3126L256.042 72.4072L258.594 66.3126L264.688 63.7606L258.594 61.2086Z" fill="white"/>
<path d="M303.01 103.757L301.234 99.5155L299.458 103.757L295.217 105.531L299.458 107.307L301.234 111.549L303.01 107.307L307.252 105.531L303.01 103.757Z" fill="white"/>
<path d="M310.782 96.3872L309.638 93.6552L308.494 96.3872L305.762 97.5299L308.494 98.6752L309.638 101.407L310.782 98.6752L313.514 97.5299L310.782 96.3872Z" fill="white"/>
<path d="M49.0674 165.369H176.501C188.329 159.798 200.829 149.549 207.585 137.918C217.359 121.088 218.59 98.8305 208.665 81.7745C202.986 72.0172 194.074 66.9771 185.566 60.0558C168.813 46.4265 158.262 25.7865 137.629 17.5172C119.355 10.1945 97.7688 10.3851 79.1888 16.5105C61.7874 22.2465 51.0874 33.2665 42.4394 48.9198C36.0181 60.5438 24.1208 67.5532 15.3181 77.1198C3.58609 89.8731 -1.25392 107.706 0.274084 124.762C1.25808 135.724 5.79009 162.134 19.1221 165.341H49.0674" fill="#FE662E"/>
<path d="M132.361 50.7679C133.055 49.2412 134.263 47.9279 136.374 47.8772C137.65 47.8466 138.582 48.7812 139.015 49.4919C140.043 51.1759 140.19 53.2266 139.691 55.1186C139.279 56.6812 138.321 58.8052 136.169 59.6812C135.207 60.0706 133.907 60.1466 133.079 59.6919C132.257 59.2399 131.894 58.4466 131.686 57.7239C131.399 56.7332 131.35 55.6466 131.443 54.6132C131.527 53.6586 131.741 52.1292 132.361 50.7679Z" fill="#FFCA9A"/>
<path d="M132.167 52.0867C132.644 51.036 133.475 50.1334 134.927 50.0974C135.805 50.076 136.447 50.72 136.745 51.2094C137.452 52.3667 137.552 53.7787 137.209 55.08C136.925 56.1547 136.265 57.616 134.787 58.2174C134.125 58.4867 133.231 58.5387 132.66 58.2254C132.095 57.9147 131.847 57.3694 131.701 56.872C131.505 56.1894 131.472 55.4427 131.535 54.7307C131.592 54.0747 131.74 53.0227 132.167 52.0867Z" fill="#FF9670"/>
<path d="M79.4646 57.0048C78.3406 54.5381 76.39 52.4154 72.9806 52.3328C70.9166 52.2834 69.4113 53.7928 68.7086 54.9434C67.0486 57.6634 66.8126 60.9768 67.618 64.0354C68.2833 66.5608 69.834 69.9941 73.3113 71.4074C74.8646 72.0381 76.9646 72.1621 78.3033 71.4261C79.6326 70.6968 80.2166 69.4141 80.5553 68.2461C81.018 66.6448 81.0966 64.8888 80.9486 63.2181C80.8126 61.6754 80.4673 59.2034 79.4646 57.0048Z" fill="#FFCA9A"/>
<path d="M79.7786 59.1362C79.0053 57.4402 77.6639 55.9789 75.3173 55.9229C73.8986 55.8869 72.8626 56.9269 72.3786 57.7189C71.2373 59.5895 71.0746 61.8695 71.6293 63.9735C72.0853 65.7109 73.1533 68.0722 75.5453 69.0442C76.6133 69.4789 78.0586 69.5629 78.9786 69.0575C79.8946 68.5549 80.2973 67.6722 80.5279 66.8695C80.8479 65.7682 80.9013 64.5589 80.7999 63.4109C80.7053 62.3482 80.4693 60.6482 79.7786 59.1362Z" fill="#FF9670"/>
<path d="M88.1261 28.0252H129.695C129.695 28.0252 130.05 40.6838 134.303 57.0892C134.303 57.0892 151.873 91.1638 128.481 104.988C118.735 110.745 106.669 111.661 96.5541 106.273C75.2168 94.9038 74.0194 65.5785 79.1941 45.0292C80.1368 41.2838 82.8021 28.0252 88.1261 28.0252Z" fill="#FFCA9A"/>
<path d="M87.9242 37.0558C94.1416 38.8545 101.044 39.2745 107.212 39.5198C115.584 39.8531 124.842 38.5798 130.954 32.2838C132.054 31.1518 133.014 29.8905 133.828 28.5398C134.846 26.8518 135.582 25.0011 136.083 23.0945C137.391 18.1291 136.874 12.2638 134.522 7.68112C131.208 1.22512 122.775 -0.0322151 116.212 0.339783C107.18 0.851784 98.8482 5.24379 92.1389 11.1158C88.7829 14.0531 85.7296 17.3958 83.1282 21.0211C81.1456 23.7838 76.8122 28.9971 79.2069 32.5771C79.7536 33.3958 80.5722 34.0011 81.4402 34.4678C83.4629 35.5531 85.6482 36.3971 87.9242 37.0558Z" fill="#081116"/>
<path d="M134.862 7.40161C131.55 0.944271 123.115 -0.313061 116.552 0.0589371C107.522 0.570938 99.1898 4.96294 92.4805 10.8363C90.8431 12.2683 89.2818 13.8003 87.8071 15.4109C88.2498 14.9989 88.6831 14.5749 89.1378 14.1776C95.8471 8.3056 104.179 3.91227 113.211 3.40027C119.774 3.02961 128.208 4.28561 131.52 10.7429C133.872 15.3256 134.39 21.1909 133.082 26.1563C132.58 28.0616 131.846 29.9136 130.827 31.6016C130.368 32.3629 129.852 33.0843 129.303 33.7803C129.995 33.2349 130.666 32.6509 131.295 32.0029C132.394 30.8723 133.355 29.6096 134.168 28.2616C135.187 26.5709 135.923 24.7203 136.424 22.8149C137.731 17.8483 137.214 11.9856 134.862 7.40161Z" fill="#44494B"/>
<path d="M87.7198 32.8237C87.3878 28.2623 84.5651 23.613 79.6304 23.1996C71.1798 22.4916 66.7504 34.7397 67.4104 41.5236C67.7371 44.885 69.0358 48.1623 71.0584 50.8636C73.2224 53.7543 76.1318 54.977 76.3251 58.9863C76.4158 60.8583 75.8998 62.7983 76.1318 64.6396C76.0984 64.3796 80.0558 60.201 80.4384 59.6223C81.8758 57.441 83.1211 55.1303 84.1558 52.733C86.8358 46.525 88.2104 39.5877 87.7198 32.8237Z" fill="#081116"/>
<path d="M80.8409 23.4054C80.4515 23.312 80.0502 23.2347 79.6302 23.2C71.1795 22.4907 66.7515 34.74 67.4102 41.524C67.6715 44.22 68.5702 46.8587 69.9555 49.1934C69.5569 47.8574 69.2755 46.488 69.1422 45.1054C68.4329 37.816 72.6449 25.252 80.8409 23.4054Z" fill="#44494B"/>
<path d="M130.971 32.2661C130.679 32.5661 130.377 32.8435 130.071 33.1208C130.51 37.7555 131.469 45.1861 133.542 53.9341L133.545 53.9395C133.545 53.9395 137.95 36.0968 134.116 28.0248C134.024 28.1901 133.942 28.3608 133.843 28.5235C133.03 29.8728 132.069 31.1341 130.971 32.2661Z" fill="#081116"/>
<path d="M107.238 39.5129C101.071 39.2662 94.1688 38.8462 87.9501 37.0475C87.8994 37.0342 87.8501 37.0155 87.7981 37.0009C87.7901 37.2262 87.7914 37.4529 87.7794 37.6782C87.8368 37.6955 87.8928 37.7142 87.9501 37.7315C94.1688 39.5302 101.071 39.9502 107.238 40.1969C115.239 40.5155 124.042 39.3542 130.142 33.7569C130.121 33.5409 130.101 33.3342 130.082 33.1302C123.983 38.6795 115.211 39.8302 107.238 39.5129Z" fill="#FF9670"/>
<path d="M128.496 104.988C118.75 110.746 106.685 111.662 96.5705 106.273C88.3518 101.894 83.1305 94.8465 80.0998 86.6665C80.1731 98.7158 75.9211 135.924 75.9211 135.924H126.857C124.472 113.425 128.49 105.648 129.074 104.61C128.877 104.734 128.7 104.868 128.496 104.988Z" fill="#FFCA9A"/>
<path d="M94.9386 110.281C105.053 115.67 117.12 114.754 126.864 108.996C127.088 108.865 127.284 108.717 127.501 108.582C128.136 106.345 128.856 104.965 129.079 104.569C128.881 104.693 128.704 104.826 128.501 104.946C122.409 108.546 115.411 110.253 108.549 109.712C104.428 109.388 100.355 108.253 96.5586 106.232C96.2813 106.084 96.0213 105.92 95.7519 105.766C95.4853 105.614 95.2146 105.465 94.9546 105.308C94.6279 105.109 94.3093 104.904 93.9933 104.698C93.7786 104.557 93.5653 104.416 93.3546 104.27C93.0253 104.045 92.6999 103.817 92.3826 103.584C92.2319 103.47 92.0839 103.354 91.9346 103.24C90.7626 102.341 89.6693 101.378 88.6493 100.357C88.6013 100.308 88.5519 100.258 88.5026 100.21C88.1413 99.8436 87.7906 99.469 87.4479 99.0863C87.4413 99.081 87.4359 99.0756 87.4306 99.069C84.2053 95.4703 81.8066 91.2503 80.1053 86.6663C80.1159 88.737 80.0199 91.2543 79.8546 93.997C83.0039 100.75 87.8559 106.508 94.9386 110.281Z" fill="#FF9670"/>
<path d="M105.482 55.3678H97.4709C96.5229 55.3678 95.7549 56.1358 95.7549 57.0838C95.7549 58.0318 96.5229 58.7998 97.4709 58.7998H105.482C106.43 58.7998 107.198 58.0318 107.198 57.0838C107.198 56.1358 106.43 55.3678 105.482 55.3678Z" fill="#081116"/>
<path d="M130.23 55.3676H123.177C122.342 55.3676 121.665 56.0449 121.665 56.8796C121.665 57.7143 122.342 58.3916 123.177 58.3916H130.23C131.066 58.3916 131.742 57.7143 131.742 56.8796C131.742 56.0449 131.066 55.3676 130.23 55.3676Z" fill="#081116"/>
<path d="M120.561 81.2871L113.884 61.8098V62.3004L109.17 81.3884C108.981 82.1511 109.496 82.9058 110.274 83.0164C112.125 83.2778 115.566 83.5831 119.489 83.0311C120.312 82.9164 120.83 82.0738 120.561 81.2871Z" fill="#FFAA8D"/>
<path d="M101.432 76.1143C101.432 79.925 98.3427 83.0156 94.5294 83.0156C90.7187 83.0156 87.6281 79.925 87.6281 76.1143C87.6281 72.3023 90.7187 69.2116 94.5294 69.2116C98.3427 69.2116 101.432 72.3023 101.432 76.1143Z" fill="#FFAA8D"/>
<path d="M139.967 75.5674C139.967 79.3781 136.878 82.4688 133.066 82.4688C129.254 82.4688 126.163 79.3781 126.163 75.5674C126.163 71.7554 129.254 68.6647 133.066 68.6647C136.878 68.6647 139.967 71.7554 139.967 75.5674Z" fill="#FFAA8D"/>
<path d="M127.047 125.849C169.537 125.849 176.1 165.341 176.1 165.341H20.1533C35.5453 125.646 76.112 125.849 76.112 125.849C76.112 125.849 85.1386 135.999 101.772 135.241C101.772 135.241 117.265 135.771 126.456 126.582L127.047 125.849Z" fill="#2F0578"/>
<path d="M102.397 64.424C102.397 65.172 101.792 65.7773 101.044 65.7773C100.298 65.7773 99.6915 65.172 99.6915 64.424C99.6915 63.6773 100.298 63.072 101.044 63.072C101.792 63.072 102.397 63.6773 102.397 64.424Z" fill="#081116"/>
<path d="M125.967 63.0718C125.967 63.8185 125.362 64.4238 124.614 64.4238C123.869 64.4238 123.263 63.8185 123.263 63.0718C123.263 62.3238 123.869 61.7185 124.614 61.7185C125.362 61.7185 125.967 62.3238 125.967 63.0718Z" fill="#081116"/>
<path d="M141.038 78.3537C139.362 78.6483 137.259 78.3297 135.582 78.1363C132.855 77.823 130.31 77.271 127.859 76.0777C124.184 74.2883 121.536 71.0443 117.536 69.835C113.891 68.7337 109.94 69.4337 107.011 71.7043C106.918 71.7763 106.824 71.851 106.732 71.927C101.467 76.267 94.4962 79.2083 87.2668 78.2137C87.2668 78.2137 87.2948 80.0963 87.3828 81.991C87.3775 81.987 87.3615 81.9843 87.3615 81.9803C87.3895 82.5003 87.4255 83.0203 87.4695 83.5417C87.4868 83.7897 87.5055 84.031 87.5242 84.2537H87.5402C87.8628 87.5563 88.4868 90.8563 89.2762 94.083C90.0415 97.215 90.9335 100.555 93.1802 103.103C99.6762 110.467 112.456 112.016 121.94 109.815C126.772 108.694 131.768 106.775 135.01 103.174C138.558 99.231 139.288 93.4283 140.08 88.5483C140.124 88.271 140.282 85.787 140.462 83.9963C140.62 82.9843 141.248 78.8203 141.038 78.3537Z" fill="white"/>
<path d="M137.173 82.0811C136.096 82.0371 134.986 81.8677 134.026 81.7464C131.469 81.4237 129.08 80.8557 126.78 79.6304C123.332 77.7931 120.846 74.4584 117.092 73.2184C113.67 72.0864 109.964 72.8037 107.216 75.1371C107.128 75.2117 107.04 75.2877 106.954 75.3651C102.334 79.5357 96.313 82.4477 90.005 81.9731" stroke="#B37BF8" stroke-width="0.666667" stroke-miterlimit="10" stroke-dasharray="1.32 1.32"/>
<path d="M135.045 86.7242C133.809 86.9629 132.256 86.7056 131.019 86.5496C129.008 86.2949 127.129 85.8496 125.32 84.8842C122.608 83.4389 120.653 80.8176 117.7 79.8416C115.011 78.9509 112.095 79.5162 109.933 81.3509C109.863 81.4096 109.796 81.4696 109.728 81.5296C105.841 85.0376 100.695 87.4149 95.3599 86.6109" stroke="#B37BF8" stroke-width="0.333333" stroke-miterlimit="10"/>
<path d="M93.9072 91.4928C93.9072 91.4928 113.158 102.513 135.703 91.4928" stroke="#B37BF8" stroke-width="0.333333" stroke-miterlimit="10"/>
<path d="M99.3384 101.727C99.3384 101.727 115.18 112.622 129.538 101.727" stroke="#B37BF8" stroke-width="0.333333" stroke-miterlimit="10"/>
</svg>
