<svg width="250" height="166" viewBox="0 0 200 166" fill="none" xmlns="http://www.w3.org/2000/svg">
<path d="M203.485 162.381C206.677 160.776 209.465 158.272 211.58 154.392C219.626 139.635 208.037 118.984 195.534 111.553C188.934 107.631 180.941 107.571 174.12 104.231C164.588 99.5627 161.146 89.472 161.377 79.36C161.669 66.4454 167.416 54.3654 167.669 41.4214C168.06 21.336 146.393 -0.813278 127.074 3.55739C112.673 6.81738 108.602 23.1267 95.2931 27.9934C78.1104 34.2774 60.1677 29.7414 43.1317 25.752C36.9304 24.3 30.0851 23.8827 24.5691 27.224C11.1104 35.3774 7.60372 56.332 10.7291 71.0934C12.3837 78.908 15.4757 86.36 16.7877 94.2974C18.4117 104.129 17.6051 114.157 11.7091 122.461C8.10505 127.54 3.88772 131.833 1.97305 138.089C-0.686948 146.78 -0.813609 156.576 2.55439 165.083C19.4504 164.919 36.3464 164.737 53.2411 164.549C85.0237 164.197 116.701 165.199 148.484 164.721C158.206 164.576 167.926 165.079 177.649 165.008C186.108 164.947 195.924 166.185 203.485 162.381Z" fill="#7474B4"/>
<path d="M325.485 42.2724L323.72 38.0537L321.953 42.2724L317.733 44.0391L321.953 45.8057L323.72 50.0244L325.485 45.8057L329.705 44.0391L325.485 42.2724Z" fill="white"/>
<path d="M257.594 61.2095L255.042 55.1149L252.49 61.2095L246.395 63.7615L252.49 66.3135L255.042 72.4082L257.594 66.3135L263.688 63.7615L257.594 61.2095Z" fill="white"/>
<path d="M302.01 103.758L300.234 99.5165L298.458 103.758L294.217 105.532L298.458 107.308L300.234 111.55L302.01 107.308L306.252 105.532L302.01 103.758Z" fill="white"/>
<path d="M309.782 96.3882L308.638 93.6562L307.494 96.3882L304.762 97.5309L307.494 98.6762L308.638 101.408L309.782 98.6762L312.514 97.5309L309.782 96.3882Z" fill="white"/>
<path d="M131.361 50.7679C132.055 49.2412 133.263 47.9279 135.374 47.8772C136.65 47.8466 137.582 48.7812 138.015 49.4919C139.043 51.1759 139.19 53.2266 138.691 55.1186C138.279 56.6812 137.321 58.8052 135.169 59.6812C134.207 60.0706 132.907 60.1466 132.079 59.6919C131.257 59.2399 130.894 58.4466 130.686 57.7239C130.399 56.7332 130.35 55.6466 130.443 54.6132C130.527 53.6586 130.741 52.1292 131.361 50.7679Z" fill="#FFCA9A"/>
<path d="M131.167 52.0867C131.644 51.036 132.475 50.1334 133.927 50.0974C134.805 50.076 135.447 50.72 135.745 51.2094C136.452 52.3667 136.552 53.7787 136.209 55.08C135.925 56.1547 135.265 57.616 133.787 58.2174C133.125 58.4867 132.231 58.5387 131.66 58.2254C131.095 57.9147 130.847 57.3694 130.701 56.872C130.505 56.1894 130.472 55.4427 130.535 54.7307C130.592 54.0747 130.74 53.0227 131.167 52.0867Z" fill="#FF9670"/>
<path d="M78.4646 57.0048C77.3406 54.5381 75.39 52.4154 71.9806 52.3328C69.9166 52.2834 68.4113 53.7928 67.7086 54.9434C66.0486 57.6634 65.8126 60.9768 66.618 64.0354C67.2833 66.5608 68.834 69.9941 72.3113 71.4074C73.8646 72.0381 75.9646 72.1621 77.3033 71.4261C78.6326 70.6968 79.2166 69.4141 79.5553 68.2461C80.018 66.6448 80.0966 64.8888 79.9486 63.2181C79.8126 61.6754 79.4673 59.2034 78.4646 57.0048Z" fill="#FFCA9A"/>
<path d="M78.7786 59.1362C78.0053 57.4402 76.6639 55.9789 74.3173 55.9229C72.8986 55.8869 71.8626 56.9269 71.3786 57.7189C70.2373 59.5895 70.0746 61.8695 70.6293 63.9735C71.0853 65.7109 72.1533 68.0722 74.5453 69.0442C75.6133 69.4789 77.0586 69.5629 77.9786 69.0575C78.8946 68.5549 79.2973 67.6722 79.5279 66.8695C79.8479 65.7682 79.9013 64.5589 79.7999 63.4109C79.7053 62.3482 79.4693 60.6482 78.7786 59.1362Z" fill="#FF9670"/>
<path d="M87.1261 28.0261H128.695C128.695 28.0261 129.05 40.6848 133.303 57.0901C133.303 57.0901 150.873 91.1648 127.481 104.989C117.735 110.746 105.669 111.662 95.5541 106.274C74.2168 94.9048 73.0194 65.5795 78.1941 45.0301C79.1368 41.2848 81.8021 28.0261 87.1261 28.0261Z" fill="#FFCA9A"/>
<path d="M86.9242 37.0558C93.1416 38.8545 100.044 39.2745 106.212 39.5198C114.584 39.8531 123.842 38.5798 129.954 32.2838C131.054 31.1518 132.014 29.8905 132.828 28.5398C133.846 26.8518 134.582 25.0011 135.083 23.0945C136.391 18.1291 135.874 12.2638 133.522 7.68112C130.208 1.22512 121.775 -0.0322151 115.212 0.339783C106.18 0.851784 97.8482 5.24379 91.1389 11.1158C87.7829 14.0531 84.7296 17.3958 82.1282 21.0211C80.1456 23.7838 75.8122 28.9971 78.2069 32.5771C78.7536 33.3958 79.5722 34.0011 80.4402 34.4678C82.4629 35.5531 84.6482 36.3971 86.9242 37.0558Z" fill="#081116"/>
<path d="M133.862 7.40258C130.55 0.945248 122.115 -0.312084 115.552 0.0599136C106.522 0.571915 98.1898 4.96391 91.4805 10.8372C89.8431 12.2692 88.2818 13.8012 86.8071 15.4119C87.2498 14.9999 87.6831 14.5759 88.1378 14.1786C94.8471 8.30658 103.179 3.91325 112.211 3.40125C118.774 3.03058 127.208 4.28658 130.52 10.7439C132.872 15.3266 133.39 21.1919 132.082 26.1572C131.58 28.0626 130.846 29.9146 129.827 31.6026C129.368 32.3639 128.852 33.0852 128.303 33.7812C128.995 33.2359 129.666 32.6519 130.295 32.0039C131.394 30.8732 132.355 29.6106 133.168 28.2626C134.187 26.5719 134.923 24.7212 135.424 22.8159C136.731 17.8492 136.214 11.9866 133.862 7.40258Z" fill="#44494B"/>
<path d="M86.7199 32.8246C86.3879 28.2633 83.5652 23.614 78.6306 23.2006C70.1799 22.4926 65.7506 34.7406 66.4106 41.5246C66.7372 44.886 68.0359 48.1633 70.0586 50.8646C72.2226 53.7553 75.1319 54.978 75.3252 58.9873C75.4159 60.8593 74.8999 62.7993 75.1319 64.6406C75.0986 64.3806 79.0559 60.202 79.4386 59.6233C80.8759 57.442 82.1212 55.1313 83.1559 52.734C85.8359 46.526 87.2106 39.5886 86.7199 32.8246Z" fill="#081116"/>
<path d="M79.8409 23.4063C79.4515 23.313 79.0502 23.2357 78.6302 23.201C70.1795 22.4917 65.7515 34.741 66.4102 41.525C66.6715 44.221 67.5702 46.8597 68.9555 49.1943C68.5569 47.8583 68.2755 46.489 68.1422 45.1063C67.4329 37.817 71.6449 25.253 79.8409 23.4063Z" fill="#44494B"/>
<path d="M129.971 32.2671C129.679 32.5671 129.377 32.8444 129.071 33.1218C129.51 37.7564 130.469 45.1871 132.542 53.9351L132.545 53.9404C132.545 53.9404 136.95 36.0978 133.117 28.0258C133.025 28.1911 132.942 28.3618 132.843 28.5244C132.03 29.8738 131.069 31.1351 129.971 32.2671Z" fill="#081116"/>
<path d="M106.238 39.5129C100.072 39.2662 93.1689 38.8462 86.9502 37.0475C86.8995 37.0342 86.8502 37.0155 86.7982 37.0009C86.7902 37.2262 86.7915 37.4529 86.7795 37.6782C86.8369 37.6955 86.8929 37.7142 86.9502 37.7315C93.1689 39.5302 100.072 39.9502 106.238 40.1969C114.24 40.5155 123.042 39.3542 129.142 33.7569C129.121 33.5409 129.101 33.3342 129.082 33.1302C122.984 38.6795 114.212 39.8302 106.238 39.5129Z" fill="#FF9670"/>
<path d="M127.496 104.988C117.75 110.746 105.685 111.662 95.5705 106.273C87.3518 101.894 82.1305 94.8465 79.0998 86.6665C79.1731 98.7158 74.9211 135.924 74.9211 135.924H125.857C123.472 113.425 127.49 105.648 128.074 104.61C127.877 104.734 127.7 104.868 127.496 104.988Z" fill="#FFCA9A"/>
<path d="M93.9387 110.281C104.053 115.67 116.12 114.754 125.864 108.996C126.088 108.865 126.284 108.717 126.501 108.582C127.136 106.345 127.856 104.965 128.079 104.569C127.881 104.693 127.704 104.826 127.501 104.946C121.409 108.546 114.411 110.253 107.549 109.712C103.428 109.388 99.3547 108.253 95.5587 106.232C95.2814 106.084 95.0214 105.92 94.7521 105.766C94.4854 105.614 94.2147 105.465 93.9547 105.308C93.6281 105.109 93.3094 104.904 92.9934 104.698C92.7787 104.557 92.5654 104.416 92.3547 104.27C92.0254 104.045 91.7001 103.817 91.3827 103.584C91.2321 103.47 91.0841 103.354 90.9347 103.24C89.7627 102.341 88.6694 101.378 87.6494 100.357C87.6014 100.308 87.5521 100.258 87.5027 100.21C87.1414 99.8436 86.7907 99.469 86.4481 99.0863C86.4414 99.081 86.4361 99.0756 86.4307 99.069C83.2054 95.4703 80.8067 91.2503 79.1054 86.6663C79.1161 88.737 79.0201 91.2543 78.8547 93.997C82.0041 100.75 86.8561 106.508 93.9387 110.281Z" fill="#FF9670"/>
<path d="M104.482 55.3688H96.4709C95.5229 55.3688 94.7549 56.1368 94.7549 57.0848C94.7549 58.0328 95.5229 58.8008 96.4709 58.8008H104.482C105.43 58.8008 106.198 58.0328 106.198 57.0848C106.198 56.1368 105.43 55.3688 104.482 55.3688Z" fill="#081116"/>
<path d="M129.23 55.3686H122.177C121.342 55.3686 120.665 56.0459 120.665 56.8806C120.665 57.7152 121.342 58.3926 122.177 58.3926H129.23C130.066 58.3926 130.742 57.7152 130.742 56.8806C130.742 56.0459 130.066 55.3686 129.23 55.3686Z" fill="#081116"/>
<path d="M119.561 81.2881L112.884 61.8108V62.3014L108.17 81.3894C107.981 82.1521 108.496 82.9068 109.274 83.0174C111.125 83.2788 114.566 83.5841 118.489 83.0321C119.312 82.9174 119.83 82.0748 119.561 81.2881Z" fill="#FFAA8D"/>
<path d="M100.432 76.1143C100.432 79.925 97.3428 83.0156 93.5295 83.0156C89.7188 83.0156 86.6282 79.925 86.6282 76.1143C86.6282 72.3023 89.7188 69.2116 93.5295 69.2116C97.3428 69.2116 100.432 72.3023 100.432 76.1143Z" fill="#FFAA8D"/>
<path d="M138.967 75.5674C138.967 79.3781 135.878 82.4688 132.066 82.4688C128.254 82.4688 125.163 79.3781 125.163 75.5674C125.163 71.7554 128.254 68.6647 132.066 68.6647C135.878 68.6647 138.967 71.7554 138.967 75.5674Z" fill="#FFAA8D"/>
<path d="M126.047 125.849C168.537 125.849 175.1 165.341 175.1 165.341H19.1533C34.5453 125.646 75.112 125.849 75.112 125.849C75.112 125.849 84.1386 135.999 100.772 135.241C100.772 135.241 116.265 135.771 125.456 126.582L126.047 125.849Z" fill="#2F0578"/>
<path d="M101.397 64.425C101.397 65.173 100.792 65.7783 100.044 65.7783C99.2982 65.7783 98.6915 65.173 98.6915 64.425C98.6915 63.6783 99.2982 63.073 100.044 63.073C100.792 63.073 101.397 63.6783 101.397 64.425Z" fill="#081116"/>
<path d="M124.967 63.0728C124.967 63.8195 124.362 64.4248 123.614 64.4248C122.869 64.4248 122.263 63.8195 122.263 63.0728C122.263 62.3248 122.869 61.7195 123.614 61.7195C124.362 61.7195 124.967 62.3248 124.967 63.0728Z" fill="#081116"/>
<path d="M140.038 78.3547C138.362 78.6493 136.259 78.3307 134.582 78.1373C131.855 77.824 129.31 77.272 126.859 76.0787C123.184 74.2893 120.536 71.0453 116.536 69.836C112.891 68.7347 108.94 69.4347 106.011 71.7053C105.918 71.7773 105.824 71.852 105.732 71.928C100.467 76.268 93.4962 79.2093 86.2668 78.2147C86.2668 78.2147 86.2948 80.0973 86.3828 81.992C86.3775 81.988 86.3615 81.9853 86.3615 81.9813C86.3895 82.5013 86.4255 83.0213 86.4695 83.5427C86.4868 83.7907 86.5055 84.032 86.5242 84.2547H86.5402C86.8628 87.5573 87.4868 90.8573 88.2762 94.084C89.0415 97.216 89.9335 100.556 92.1802 103.104C98.6762 110.468 111.456 112.017 120.94 109.816C125.772 108.695 130.768 106.776 134.01 103.175C137.558 99.232 138.288 93.4293 139.08 88.5493C139.124 88.272 139.282 85.788 139.462 83.9973C139.62 82.9853 140.248 78.8213 140.038 78.3547Z" fill="white"/>
<path d="M136.173 82.0811C135.096 82.0371 133.986 81.8677 133.026 81.7464C130.469 81.4237 128.08 80.8557 125.78 79.6304C122.332 77.7931 119.846 74.4584 116.092 73.2184C112.67 72.0864 108.964 72.8037 106.216 75.1371C106.128 75.2117 106.04 75.2877 105.954 75.3651C101.334 79.5357 95.313 82.4477 89.005 81.9731" stroke="#B37BF8" stroke-width="0.666667" stroke-miterlimit="10" stroke-dasharray="1.32 1.32"/>
<path d="M134.045 86.7242C132.809 86.9629 131.256 86.7056 130.019 86.5496C128.008 86.2949 126.129 85.8496 124.32 84.8842C121.608 83.4389 119.653 80.8176 116.7 79.8416C114.011 78.9509 111.095 79.5162 108.933 81.3509C108.863 81.4096 108.796 81.4696 108.728 81.5296C104.841 85.0376 99.6945 87.4149 94.3599 86.6109" stroke="#B37BF8" stroke-width="0.333333" stroke-miterlimit="10"/>
<path d="M92.9072 91.4928C92.9072 91.4928 112.158 102.513 134.703 91.4928" stroke="#B37BF8" stroke-width="0.333333" stroke-miterlimit="10"/>
<path d="M98.3384 101.727C98.3384 101.727 114.18 112.622 128.538 101.727" stroke="#B37BF8" stroke-width="0.333333" stroke-miterlimit="10"/>
<path d="M44.7094 47.0004C40.4347 47.0177 36.9827 50.4964 37.0001 54.7711L37.1414 90.7244C37.1547 94.1657 39.4134 97.0697 42.5227 98.0644L42.5787 112.41C42.5841 113.728 43.6574 114.794 44.9761 114.787C46.2947 114.782 47.3587 113.71 47.3534 112.391L47.2974 98.0444C50.4001 97.0271 52.6347 94.1044 52.6214 90.6644L52.4801 54.7098C52.4627 50.4351 48.9841 46.9831 44.7094 47.0004Z" fill="#DDB7FF"/>
<path d="M44.6326 49.1851C41.4086 49.1971 38.8059 51.8211 38.8193 55.0451L38.9606 90.9664C38.9713 93.7331 40.9073 96.0371 43.4926 96.6278L43.5526 112.077C43.5553 112.801 44.1459 113.386 44.8699 113.384C45.5939 113.381 46.1779 112.792 46.1739 112.068L46.1139 96.6265C48.7113 96.0251 50.6433 93.6984 50.6326 90.9211L50.4913 54.9985C50.4793 51.7745 47.8553 49.1718 44.6326 49.1851Z" fill="#FF8359"/>
<path d="M50.7381 67.8916L50.6861 54.7823C50.6728 51.4516 47.9621 48.7623 44.6301 48.7756C41.2995 48.7876 38.6088 51.4996 38.6221 54.8303L38.6741 67.8636L50.7381 67.8916Z" fill="white"/>
<path d="M47.0441 90.3332L38.9468 90.3652L38.9454 89.7812L47.0414 89.7492L47.0441 90.3332Z" fill="#8944FC"/>
<path d="M47.0154 82.9358L38.9181 82.9678L38.9154 82.3838L47.0127 82.3518L47.0154 82.9358Z" fill="#8944FC"/>
<path d="M46.9829 74.8694L38.8869 74.9014L38.8843 74.3174L46.9816 74.2854L46.9829 74.8694Z" fill="#8944FC"/>
<path d="M46.9242 59.9289L38.8282 59.9609L38.8256 59.3769L46.9216 59.3449L46.9242 59.9289Z" fill="#8944FC"/>
<path d="M46.9554 67.8606L38.8594 67.8926L38.8567 67.3086L46.954 67.2766L46.9554 67.8606Z" fill="#8944FC"/>
<path d="M43.2811 63.8684L38.8424 63.8857L38.8411 63.3017L43.2784 63.2844L43.2811 63.8684Z" fill="#8944FC"/>
<path d="M43.3108 71.4602L38.8722 71.4775L38.8708 70.8935L43.3082 70.8762L43.3108 71.4602Z" fill="#8944FC"/>
<path d="M43.3409 79.1985L38.9035 79.2158L38.9009 78.6318L43.3395 78.6145L43.3409 79.1985Z" fill="#8944FC"/>
<path d="M43.3709 86.6438L38.9322 86.6611L38.9296 86.0771L43.3682 86.0598L43.3709 86.6438Z" fill="#8944FC"/>
</svg>
